<svg width="40" height="40" viewBox="0 0 40 40" fill="none" xmlns="http://www.w3.org/2000/svg">
<rect width="40" height="40" rx="10" fill="white"/>
<mask id="mask0_108_616" style="mask-type:alpha" maskUnits="userSpaceOnUse" x="8" y="8" width="24" height="24">
<rect x="8" y="8" width="24" height="24" fill="#D9D9D9"/>
</mask>
<g mask="url(#mask0_108_616)">
<path d="M18.9998 31V29C16.9165 28.7666 15.129 27.9041 13.6373 26.4125C12.1456 24.9208 11.2831 23.1333 11.0498 21.05H9.0498V19.05H11.0498C11.2831 16.9666 12.1456 15.1791 13.6373 13.6875C15.129 12.1958 16.9165 11.3333 18.9998 11.1V9.09998H20.9998V11.1C23.0831 11.3333 24.8706 12.1958 26.3623 13.6875C27.854 15.1791 28.7165 16.9666 28.9498 19.05H30.9498V21.05H28.9498C28.7165 23.1333 27.854 24.9208 26.3623 26.4125C24.8706 27.9041 23.0831 28.7666 20.9998 29V31H18.9998ZM19.9998 27.05C21.9331 27.05 23.5831 26.3666 24.9498 25C26.3165 23.6333 26.9998 21.9833 26.9998 20.05C26.9998 18.1166 26.3165 16.4666 24.9498 15.1C23.5831 13.7333 21.9331 13.05 19.9998 13.05C18.0665 13.05 16.4165 13.7333 15.0498 15.1C13.6831 16.4666 12.9998 18.1166 12.9998 20.05C12.9998 21.9833 13.6831 23.6333 15.0498 25C16.4165 26.3666 18.0665 27.05 19.9998 27.05Z" fill="#1C1B1F"/>
</g>
</svg>
