<svg width="36" height="33" viewBox="0 0 36 33" fill="none" xmlns="http://www.w3.org/2000/svg">
<g clip-path="url(#clip0_458_900)">
<path d="M17.1432 1.69846C17.5222 1.00352 18.5201 1.00351 18.8991 1.69845L22.9192 9.06982C23.3507 9.861 24.115 10.4163 25.0008 10.5822L33.2536 12.1277C34.0317 12.2734 34.34 13.2224 33.7962 13.7976L28.0279 19.8988C27.4088 20.5537 27.1168 21.4521 27.2328 22.3458L28.3132 30.6724C28.4151 31.4574 27.6078 32.0439 26.8927 31.7044L19.3076 28.1038C18.4935 27.7174 17.5488 27.7174 16.7346 28.1038L9.14954 31.7044C8.43444 32.0439 7.62715 31.4574 7.72901 30.6724L8.80945 22.3459C8.92542 21.4522 8.63349 20.5537 8.01437 19.8988L2.24606 13.7976C1.70225 13.2224 2.01061 12.2734 2.78865 12.1277L11.0415 10.5822C11.9273 10.4163 12.6916 9.861 13.1231 9.06981L17.1432 1.69846Z" stroke="#FFE500" stroke-width="2"/>
</g>
<defs>
<clipPath id="clip0_458_900">
<rect width="36" height="33" fill="white"/>
</clipPath>
</defs>
</svg>
