<svg width="36" height="33" viewBox="0 0 36 33" fill="none" xmlns="http://www.w3.org/2000/svg">
<path d="M17.1432 1.69837C17.5222 1.00343 18.5201 1.00342 18.8991 1.69836L22.9192 9.06973C23.3507 9.86091 24.115 10.4162 25.0008 10.5821L33.2536 12.1276C34.0317 12.2733 34.34 13.2223 33.7962 13.7975L28.0279 19.8987C27.4088 20.5536 27.1168 21.452 27.2328 22.3457L28.3132 30.6723C28.4151 31.4573 27.6078 32.0438 26.8927 31.7043L19.3076 28.1037C18.4935 27.7173 17.5488 27.7173 16.7346 28.1037L9.14953 31.7043C8.43443 32.0438 7.62715 31.4573 7.72901 30.6723L8.80945 22.3458C8.92542 21.4521 8.63348 20.5536 8.01436 19.8987L2.24606 13.7975C1.70225 13.2223 2.01061 12.2733 2.78865 12.1276L11.0415 10.5821C11.9273 10.4162 12.6916 9.86091 13.1231 9.06972L17.1432 1.69837Z" stroke="white" stroke-width="2"/>
</svg>
