<svg width="30" height="30" viewBox="0 0 30 30" fill="none" xmlns="http://www.w3.org/2000/svg">
<path fill-rule="evenodd" clip-rule="evenodd" d="M9.07038 0.0818088L20.2575 3.63224L27.5728 0.596253C28.7252 0.117985 29.9936 0.964868 29.9936 2.21258V24.6648C29.9936 25.3537 29.5895 25.9784 28.9612 26.2609L21.222 29.7405L21.181 29.8697L21.0365 29.8239L21.0031 29.8389L20.9897 29.809L9.34429 26.1132L2.46761 29.205C1.30962 29.7256 0 28.8785 0 27.6089V4.4925C0 3.75437 0.463138 3.0956 1.1577 2.84578L8.77948 0.104351L8.8126 0L8.94913 0.0433308L9.04423 0.00912553L9.07038 0.0818088ZM21.4455 4.76325V27.9954L28.3461 24.8928C28.4359 24.8525 28.4936 24.7632 28.4936 24.6648V2.21258C28.4936 2.03434 28.3124 1.91335 28.1478 1.98168L21.4455 4.76325ZM19.9455 27.9039V5.10696L10.0481 1.96584V24.7628L19.9455 27.9039ZM8.5481 24.8265V1.78166L1.66539 4.25725C1.56616 4.29294 1.5 4.38705 1.5 4.4925V27.6089C1.5 27.7902 1.68709 27.9112 1.85252 27.8369L8.5481 24.8265Z" fill="#132F2D"/>
</svg>
