<svg width="24" height="22" viewBox="0 0 24 22" fill="none" xmlns="http://www.w3.org/2000/svg">
<path d="M11.1033 0.816986C11.4701 0.0737399 12.5299 0.0737401 12.8967 0.816986L15.5879 6.26995C15.7336 6.56509 16.0152 6.76966 16.3409 6.81699L22.3586 7.69141C23.1788 7.8106 23.5063 8.81857 22.9128 9.39711L18.5583 13.6416C18.3227 13.8714 18.2151 14.2024 18.2707 14.5268L19.2987 20.5202C19.4388 21.3371 18.5814 21.96 17.8477 21.5743L12.4653 18.7446C12.174 18.5915 11.826 18.5915 11.5347 18.7446L6.15226 21.5743C5.41864 21.96 4.5612 21.3371 4.70131 20.5202L5.72926 14.5268C5.7849 14.2024 5.67735 13.8714 5.44166 13.6416L1.08721 9.3971C0.493698 8.81857 0.821208 7.8106 1.64143 7.69141L7.65913 6.81699C7.98484 6.76966 8.2664 6.56509 8.41207 6.26995L11.1033 0.816986Z" fill="#1A3F3C"/>
</svg>
