<svg width="24" height="24" viewBox="0 0 24 24" fill="none" xmlns="http://www.w3.org/2000/svg">
<g clip-path="url(#clip0_447_930)">
<path d="M12 22L11.6289 22.3351L12 22.746L12.3711 22.3351L12 22ZM12 22C12.3711 22.3351 12.3711 22.3351 12.3712 22.3349L12.3716 22.3345L12.3728 22.3332L12.377 22.3285L12.3929 22.3107C12.3986 22.3044 12.4054 22.2968 12.4132 22.288C12.4244 22.2754 12.4379 22.2602 12.4534 22.2427C12.5059 22.1832 12.5825 22.0958 12.6796 21.9831C12.8738 21.7577 13.1504 21.4307 13.482 21.0221C14.1447 20.2056 15.0291 19.0607 15.9145 17.7484C16.7989 16.4375 17.6905 14.9506 18.3626 13.4505C19.0316 11.957 19.5 10.4137 19.5 9C19.5 4.85386 16.1461 1.5 12 1.5C7.85386 1.5 4.5 4.85386 4.5 9C4.5 10.4137 4.96836 11.957 5.63745 13.4505C6.30947 14.9506 7.20108 16.4375 8.08552 17.7484C8.97092 19.0607 9.85533 20.2056 10.518 21.0221C10.8496 21.4307 11.1262 21.7577 11.3204 21.9831C11.4175 22.0958 11.4941 22.1832 11.5466 22.2427C11.5729 22.2724 11.5932 22.2952 11.6071 22.3107L11.623 22.3285L11.6272 22.3332L11.6284 22.3345L11.6288 22.3349C11.6289 22.3351 11.6289 22.3351 12 22ZM12 11C10.8961 11 10 10.1039 10 9C10 7.89614 10.8961 7 12 7C13.1039 7 14 7.89614 14 9C14 10.1039 13.1039 11 12 11Z" fill="#425563" stroke="#2A483C"/>
</g>
<defs>
<clipPath id="clip0_447_930">
<rect width="24" height="24" fill="white"/>
</clipPath>
</defs>
</svg>
